<svg xmlns="http://www.w3.org/2000/svg" width="653" height="262" version="1.2" viewBox="0 -0.008 653 261.008"><style>.s0{fill:#f8ebd6}.s1{fill:#050505}.s2{fill:#f292ba}</style><g id="Дизайн"><g id="&lt;Group&gt;"><path id="&lt;Path&gt;" d="M73.2 36C41 45.6 15.7 74 7.7 106.6c-8 32.7.7 68.5 21 95.3 4.2 5.5 8.9 10.7 14.2 15 22.6 18.3 54.2 19.6 83.3 18.4 9.8-.4 19.7-1 29-4.3 9.5-3.4 17.9-9.5 25.3-16.4 25.3-23.9 39.6-59.2 36.8-93.8-2.8-34.7-22.9-67.7-53-85-30.1-17.4-69.4-18-99.6-.8" class="s0"/><path d="M71.9 31.5C29.1 44.6.4 86.7.2 130.9c-.1 23.9 7.3 47.9 20.6 67.7 6.7 10.1 14.9 19.5 25.2 26.2 9.5 6.3 20.5 10.2 31.6 12.4 11.5 2.3 23.3 3 35 3 12.7 0 25.9-.1 38.3-3.1 23.1-5.7 41.6-25.3 53.5-45 12.1-20 18.6-43.5 17.8-66.9-.9-22.1-8.4-44-21.3-61.9-13.3-18.6-31.7-32.8-53.5-40.1-22.1-7.3-47-7.3-69 .5-5.6 2-10.9 4.5-16 7.3-5.2 2.9-.5 10.9 4.6 8 38.1-21.5 87.4-13.1 117.2 18.4 13.9 14.6 23.3 33.2 27.1 53 4 20.8 1.1 42.7-7.2 62.1-8.2 19.5-22.3 38.5-40.7 49.5-10.5 6.3-22 7.9-34 8.5-10.9.6-21.8.8-32.7 0-21.6-1.5-42.9-7.7-58.1-23.9-15-16.2-24.7-37.5-28-59.2-6.3-40.8 13.4-83 50.6-101.8 4.3-2.1 8.6-3.8 13.2-5.2 5.6-1.7 3.2-10.6-2.5-8.9z" class="s1"/><path d="M157.7 126q19.3.4 38.5 2.2c2.5.2 4.6-2.3 4.6-4.6 0-2.7-2.1-4.4-4.6-4.6q-19.2-1.8-38.5-2.2c-5.9-.1-5.9 9.1 0 9.2z" class="s1"/><path d="M177.4 124.8c-.7 1.7-1.3 3.3-1.6 5.1-.3 2.1-.5 4.2 0 6.3.5 2.5 2.5 4.3 4.9 5.1 2 .7 4.3.3 6.1-.7 3.5-1.9 4.9-6.1 4.6-9.9q-.1-1.5-.4-3c-.2-1.6-1.3-3.1-2.7-3.9-2.2-1.2-5.1-.8-7.1.5-.8.4-1.5 1-2.1 1.7-.9 1-1.4 1.9-1.9 3.3-.6 1.6-.7 3.7-.1 5.4.4 1.1 1.1 2.1 2.1 2.7 1 .6 2.5.9 3.6.5s2.2-1 2.7-2.1c.6-1.1.9-2.4.5-3.6q-.2-.4-.2-.8.1.6.1 1.2 0-.5.1-1.1-.1.7-.2 1.3.1-.6.3-1.2-.2.5-.4 1.1.2-.6.6-1.1-.4.5-.7 1 .3-.5.7-.8-.4.3-.9.7.4-.3.9-.6-.5.3-1.1.5.5-.2 1-.3l-1.2.2h.5l-1.2-.2q.2 0 .3.1-.6-.2-1.1-.5l.2.2q-.4-.4-.9-.8l.2.2q-.4-.5-.7-.9.1.2.2.3-.3-.5-.5-1.1c.1.4.2.7.2 1.1q-.1-.6-.1-1.2c.1 1.1.2 2.2.1 3.4q0-.6.1-1.2-.1.8-.4 1.6.2-.6.5-1.1-.3.5-.7 1 .4-.4.7-.9-.3.4-.7.8.4-.4.9-.7-.4.3-.8.4.5-.2 1.1-.4l-.8.2q.7-.1 1.3-.2-.5.1-.9 0l1.2.2q-.4-.1-.8-.3.5.3 1.1.5-.3-.1-.6-.4.4.4.9.7-.2-.1-.4-.4.3.5.7.9-.1-.2-.3-.4.3.5.5 1.1-.2-.5-.2-1 0 .6.1 1.2c-.1-1.1 0-2.2.1-3.3q-.1.6-.1 1.2.2-2 1-3.9-.2.6-.4 1.1v-.1q.5-.8.6-1.8.2-.9-.1-1.8c-.3-1.1-1.1-2.2-2.1-2.7-1.1-.6-2.4-.9-3.6-.5-1 .3-2.3 1-2.7 2.1zM95.4 125.7q20.1-.5 40.1.9c2.5.2 4.6-2.3 4.6-4.6 0-2.7-2.1-4.4-4.6-4.6q-20-1.5-40.1-.9c-5.9.2-5.9 9.4 0 9.2z" class="s1"/><path d="M117.4 124.5c-.6 2.8-.7 5.5-.2 8.3.2 1.5 1 3 2 4 1.5 1.4 3.4 1.9 5.4 1.8 1.4-.1 2.8-.1 4.2-.4 1.1-.2 2.1-.8 2.9-1.5.9-.8 1.4-1.8 1.8-2.9q.2-.5.3-1.1.2-1.3.3-2.5.1-.7 0-1.4c-.1-.9-.1-1.8-.5-2.6-.4-1.2-.8-2-1.7-2.9-.5-.6-1.2-1.1-1.9-1.5-1.1-.5-2-.8-3.2-.8-1.2-.1-2.3.3-3.3.9-1 .5-1.9 1.6-2.2 2.7-.3 1.1-.1 2.6.5 3.6.6.9 1.6 1.8 2.8 2.1 1.2.2 2.4.1 3.5-.5q.1-.1.2-.1-.6.2-1.1.5.2-.1.5-.2l-1.2.2h.5l-1.2-.2.6.2q-.6-.2-1.1-.5l.6.4q-.4-.3-.9-.7.3.2.5.5-.3-.4-.7-.9.3.3.4.7-.2-.5-.4-1.1.2.5.2 1.1 0-.6-.1-1.2c.1.9 0 1.8-.1 2.7q.1-.6.1-1.2c0 .4-.1.9-.3 1.4q.3-.6.5-1.1-.1.2-.3.5.4-.5.7-1-.1.2-.3.4.5-.4.9-.7-.1.1-.3.1.6-.2 1.1-.4-.3.1-.6.1.6 0 1.2-.1c-.7.1-1.3.1-2 .1-.7.1-1.3.1-2 .1q.6 0 1.2.1-.2 0-.5-.1.6.2 1.1.5-.2-.1-.4-.3.5.4.9.8-.1-.2-.3-.4.4.5.7 1-.2-.3-.3-.6.2.6.5 1.1-.3-.6-.4-1.2l.2 1.2c-.2-1.5-.2-3.1 0-4.6q-.1.6-.1 1.2l.2-1.2c.2-1.2.2-2.4-.5-3.5-.5-1-1.6-1.9-2.7-2.2-1.2-.2-2.5-.2-3.6.5-1 .6-1.9 1.6-2.1 2.8zM113.9 174.3c-.6 7.8 4.6 14.8 11.1 18.7 6.7 3.9 14.4 4.7 21.9 6 2.3.4 5-.7 5.6-3.2.5-2.3-.7-5.2-3.2-5.7-3.3-.6-6.7-1-10.1-1.7q-2.3-.5-4.6-1.2c-1.6-.6-2.3-.8-3.7-1.5q-.9-.5-1.9-1.1-.4-.2-.8-.5c-.1-.1-.9-.7-.4-.3q-.9-.7-1.6-1.5-.5-.4-.8-.9c-.2-.1-.5-.5-.2-.2-1-1.3-1.4-2.1-1.7-3.3q-.2-.4-.3-.9c0-.3-.2-1-.1-.4-.1-.8-.1-1.6 0-2.3.2-2.4-2.2-4.7-4.6-4.6-2.7.1-4.4 2-4.6 4.6z" class="s1"/><path d="M396.5 88.4c-1.9-12.2.7-25.7 9.6-34.4 8.8-8.6 24.4-10.5 33.4-2 .1-6.1 4.7-11.8 10.6-13.3 5.9-1.5 12.7 1.4 15.6 6.7 1.3-15.4 15.4-28.7 30.9-29 15.5-.4 30.2 12.2 32.2 27.6 3.9-6.1 12.7-8.5 19.2-5.3s10 11.5 7.7 18.4c9.5-11.7 29.4-10.6 40.2-.1 10.8 10.5 13.4 27.4 9.9 42.1 10.9-1 22.9-1.6 31.7 4.9 9.1 6.6 12 19.3 9.8 30.3-2.2 11-8.7 20.6-15.4 29.6 14.3 9.9 14.1 33.6 1.6 45.7-12.5 12.1-33.2 12.9-48.7 5 2.3 10.7-4.6 22.6-15.1 26-10.5 3.3-23-2.4-27.4-12.5-2.7 15.7-18.2 28.1-34.2 27.4-15.9-.8-30.2-14.6-31.4-30.5-7.6 18.7-27.6 31.7-47.9 31-20.2-.7-39.2-15.1-45.5-34.4-6.7 10.1-20.5 14.8-32 10.9-11.5-3.9-19.6-16.2-18.6-28.3-8.5 9.7-25.5 9.3-34.4 0-8.8-9.4-8.9-25.3-1-35.5-6.5.6-13-4.7-13.6-11.2-.6-6.6 4.8-13 11.3-13.6-12-10.2-14.4-30.1-5-42.9 9.3-12.7 28.9-16.6 42.3-8.2-1.2-12.6-.3-26.1 6.8-36.6s21.9-16.5 33-10.5c-3.5-9.7 1.1-21.6 10.2-26.4 9.1-4.8 21.5-1.8 27.5 6.6 6.5-12.1 19.6-20.3 33.3-20.9 13.7-.5 27.4 6.6 34.9 18.1" class="s2"/><path d="M400.4 87.3c-1.5-10.8.8-23.4 9.3-31 7.1-6.4 19.4-8.1 26.9-1.4 2.7 2.5 6.9.7 7.1-2.9.5-9.9 13.4-12.9 18.5-4.5 2.2 3.7 7.3 1.8 7.7-2.1 1.3-13.3 13.7-24.8 27.2-24.9 13.8-.1 25.7 11.2 27.7 24.6.6 3.8 5.7 3.5 7.5 1 3-4.3 9.3-6 14.1-3.6 4.9 2.4 6.8 8.5 5.3 13.5-1.1 3.8 4.2 7.2 6.9 4 8.1-9.5 23.3-9 32.8-1.5 11.5 9.1 13.5 26 10.4 39.5-.5 2.4 1.2 5.5 4 5.2 7.6-.6 15.6-1.4 23 .9 7 2.2 11.8 7.6 13.8 14.5 4.8 15.9-5.1 31-14.3 43.2-1.4 1.9-.1 4.5 1.5 5.7 11.7 8.4 11.2 27.3 2.3 37.6-11 12.6-31 13-45.2 5.9-3.3-1.7-6.7 1.1-6 4.7 1.6 8.9-4.3 18.8-13.2 21.2-8.8 2.3-18.1-2.8-21.8-10.9-1.5-3.2-6.9-2.4-7.6 1-2.6 13.8-15.4 24.8-29.7 24.3-13.9-.4-26.5-12.5-27.8-26.3-.5-4.8-6.3-5.4-8.1-1.1-7.2 17.2-25.8 28.8-44.4 27.9-18.3-.8-35.2-14-41-31.3-1.2-3.5-5.5-3.9-7.5-1-5.9 8.4-17.2 12.3-27 9.2-10.2-3.3-16.6-14-16-24.5.2-3.5-4.7-5.5-7-2.9-7.1 7.7-20.4 7.9-27.9.6-8.5-8.3-7.7-22.1-1-31.1 1.8-2.5-.7-6.4-3.6-6.2-4.3.2-8.9-2.7-9.5-7.3-.5-4.2 3-8.7 7.2-9.2 3.2-.5 5.9-4.5 2.9-7.1-10.4-9.2-12.9-26-4.6-37.5 8.1-11.3 25.2-14.2 37-7.1 2.5 1.4 6.5-.4 6.2-3.6-1.1-11.9-.8-25.4 6.7-35.3 5.9-7.9 17.5-13 26.8-8.3 3 1.6 7.3-1 6.1-4.6-2.7-7.9.4-17.3 7.9-21.5 7.2-4 17.3-1.7 22.2 4.9 1.8 2.3 5.5 2.9 7.2 0 5.9-10.8 17.3-18.3 29.7-18.8 12.3-.6 24.5 5.7 31.3 16 2.9 4.4 10.1.2 7.1-4.2C473.1 8.4 458.4.3 443.1.9c-15.3.6-29.5 9.6-36.9 22.9h7.2c-7.6-10-21.3-13.9-32.8-8.3-11.1 5.5-16.4 19.7-12.5 31.3q3-2.4 6.1-4.7c-12.1-6.1-26.8-1.7-35.6 8.1-10.3 11.5-11.7 27.9-10.4 42.6l6.2-3.6c-15.4-9.2-36.9-5.1-47.7 9.4-10.7 14.4-7.9 36.5 5.4 48.2q1.5-3.5 2.9-7c-8.6 1.1-16.1 8.5-15.4 17.7.6 8.8 8.9 15.8 17.7 15.3q-1.8-3.1-3.5-6.2c-9 12.1-8.8 31.4 2.9 41.8 10.8 9.5 28.9 9.6 38.9-1.3q-3.5-1.4-7.1-2.9c-.7 14.2 8.6 28.1 22.1 32.4 13.4 4.3 28.4-1.5 36.3-12.9l-7.6-1c5.5 16.2 18.5 29 34.6 34.6 16.6 5.8 35.2 2.2 49-8.3 8-6 13.9-13.8 17.8-22.9q-4.1-.6-8.1-1.1c1.7 18.1 16.7 33.4 35 34.5 18 1.2 35.3-12.8 38.7-30.3l-7.6 1c5.4 11.6 19.8 18.2 32.1 14.4 12.9-4.2 20.4-18 18-31.1l-6 4.6c17.9 9 43 8.1 56.3-8.6 11.6-14.5 10.5-37.9-5.1-49.2q.7 2.9 1.5 5.7c10.8-14.5 21.3-32.9 14.5-51.5-3-8.1-8.8-14.5-17-17.6-8.6-3.3-18.2-2.7-27.2-1.9l4 5.2c3.8-17.1.7-37.7-14.2-48.8-12.5-9.3-32.3-9.6-42.8 2.8q3.4 2 6.9 4c2.6-8.8-1.5-19.3-10-23.3-8.8-4.1-19-.7-24.5 7q3.8.5 7.5 1c-2.5-17.2-19.1-31.3-36.6-30.6-17.9.7-32.7 15.6-34.5 33.1q3.9-1 7.7-2.1c-4.2-6.8-12.4-10.6-20.3-8.6s-13.2 9.4-13.6 17.3q3.5-1.5 7.1-2.9c-10.5-9.4-26.5-8.4-37.2.1-12 9.5-14.9 26-12.8 40.3.7 5.2 8.7 3 7.9-2.2z" class="s1"/><path d="M470.8 64.1c9.8 3.2 16.9 13.4 16.4 23.7 2.2-4.2 7.6-6.4 12.1-5.1" class="s2"/><path d="M469.7 68.1q.4.1.8.3s1 .4.7.2c-.4-.1.3.2.4.2q.4.2.7.4c.9.5 2.4 1.4 2.9 1.8 1.4 1.1 3.3 3.2 4.2 4.5q1 1.5 1.8 3.1.2.3.3.7c.3.7-.3-.9.2.4q.3.7.5 1.5.3.9.5 1.8.1.4.1.8c.1.2.2.9.1.3q.2 1.9.1 3.7c-.1 4.1 5.8 5.6 7.7 2.1.8-1.4 1.9-2.4 3.3-2.9 1.4-.6 2.7-.7 4.2-.3 5.2 1.4 7.3-6.6 2.2-8-6.4-1.7-13.5 1.2-16.8 7q3.8 1.1 7.7 2.1c.5-12.3-7.8-23.8-19.4-27.7-2.1-.7-4.5.9-5.1 2.9-.6 2.3.8 4.4 2.9 5.1z" class="s1"/><path d="M567.2 125.1c.1-2.3-.8-4.6-1.8-6.8-1.3-2.7-3-5.4-5.1-7.5-3.2-3.2-7.6-5.1-12.1-5.4-4.5-.2-9.1 1.3-12.6 4.1" class="s2"/><path d="M571.4 125.1c-.1-4.5-2.1-8.9-4.6-12.6-2.3-3.7-5.4-6.8-9.3-8.7-8.3-4.1-17.6-2.8-24.8 2.8-1.8 1.4-1.4 4.4 0 5.8 1.7 1.8 4.1 1.4 5.8 0 4.4-3.4 10.6-3.7 15.2-1.3 2.6 1.3 4.5 3.1 6 5.5 1.6 2.5 3.4 5.6 3.4 8.5.1 5.3 8.3 5.4 8.3 0z" class="s1"/><path d="M557.4 106.9c1.7.2 3-1.5 3.6-3.1 2.1-5.3 1-11.7-2.8-16" class="s2"/><path d="M557.4 111.1c6.3.1 8.6-7.4 8.7-12.5.2-5-1.7-9.9-5-13.7-1.4-1.6-4.4-1.6-5.8 0-1.6 1.8-1.5 4.1 0 5.8.1.1.3.4.4.5-.3-.1-.5-.6-.1 0q.4.4.6.9.4.6.7 1.2c0 .1.1.4.2.5-.1-.2-.3-.7-.1-.2.3.8.5 1.6.7 2.4q.1.3.1.7c.1.6-.1-.1 0-.3-.1.4.1 1 .1 1.3 0 .7.1 1.9-.1 2.5.1-.2.1-.8 0-.2q-.1.2-.1.5-.2.7-.4 1.3-.1.2-.1.5c-.1.1-.3.8-.1.2.3-.7-.5.7-.4.7q.1-.2.3-.4l-.2.2-.2.2q.2-.2.4-.3c-.7.4.7-.1.2 0-.5.1 1.1-.1.2-.1-2.1-.1-4.2 1.9-4.1 4.1.1 2.3 1.8 4.1 4.1 4.2z" class="s1"/><path d="M504.9 183.7c-4.8.3-9.8.6-14.5-.8-7.6-2.4-13.2-9.1-16.3-16.4" class="s2"/><path d="M504.9 179.6c-3.3.2-6.8.5-10.1 0-3.1-.4-5.1-1.2-7.6-2.8-1.9-1.2-3.9-3.2-5.5-5.3-1.4-1.7-3-4.7-4.1-7.1-.9-2-3.8-2.5-5.6-1.5-2.1 1.3-2.4 3.6-1.5 5.7 2.7 6.1 6.9 11.6 12.5 15.3 6.6 4.3 14.3 4.4 21.9 3.9 2.2-.1 4.1-1.8 4.1-4.1 0-2.1-1.8-4.3-4.1-4.1z" class="s1"/><path d="M485.1 181.6c-1.2 4.1-4.9 7.2-9.1 8.5-4.1 1.3-8.5 1.2-12.8.9" class="s2"/><path d="m481.1 180.5-.2.6c-.2.6.1-.1.1-.1.1.1-.6 1-.7 1.2q-.1.3-.3.5c-.3.5.4-.5.1-.1-.4.4-.7.7-1 1.1q-.5.4-.9.8c.2-.2.4-.3 0-.1q-.3.2-.6.5-.6.3-1.1.6-.3.1-.6.3c-.2.1-.9.3-.1 0-.9.3-1.8.6-2.8.8l-1 .2c-.1 0-.8.1-.4.1h-.5q-.4.1-.8.1c-2.4.1-4.7 0-7.1-.1-2.1-.2-4.2 2-4.1 4.1.1 2.3 1.8 3.9 4.1 4.1 5.6.4 11.2.3 16.4-2 4.4-2 8.1-5.7 9.4-10.4.6-2.1-.7-4.6-2.8-5.1-2.2-.5-4.5.7-5.1 2.9z" class="s1"/><path d="M597.3 168.6c-2.3 2.9-5.9 4.5-9.4 5.7-7.2 2.4-15 3.3-22.6 2.5 2.3 2 3.6 5.1 3.5 8.1-.2 3.1-1.7 6-4.2 7.8" class="s2"/><path d="M594.4 165.7c-3.2 3.7-8.2 5.1-12.8 6.1-5.4 1.2-10.8 1.4-16.3.8-3.6-.3-5.3 4.8-2.9 7.1 3.3 3 2.8 7.4-.7 10.1-1.8 1.4-1.5 4.4 0 5.9 1.7 1.7 4.1 1.3 5.8 0 6.9-5.4 7-16 .7-21.9q-1.4 3.6-2.9 7.1c6.4.6 12.8.2 19.1-1.3 5.7-1.3 11.9-3.5 15.8-8.1 1.4-1.7 1.7-4.1 0-5.8-1.5-1.5-4.4-1.7-5.8 0z" class="s1"/><path d="M437.7 128.9c-15.3-2-30.7-2.6-46.2-1.7" class="s2"/><path d="M437.7 124.8c-15.3-2-30.7-2.6-46.2-1.7-5.2.3-5.3 8.5 0 8.2 15.5-.8 30.9-.2 46.2 1.8 2.3.2 4.2-2.2 4.2-4.2 0-2.4-1.9-3.8-4.2-4.1z" class="s1"/><path d="M407.8 130.4c1.1 3.3-.3 7.3-3.1 9.3-.5.3-.9.5-1.4.6-1.3.1-2.4-1-3.1-2.1-.8-1.2-1.4-2.5-1.6-3.9-.1-1.4.3-2.9 1.3-3.9 1-.9 2.7-1.2 3.9-.4.4.2.7.6 1 1 1.6 2.4 1.2 5.8-.7 7.9-.2.1-.3.2-.5.3-.4 0-.7-.4-.9-.8-.7-1.9-1-3.9-1-6 0-.5.3-1.2.8-1 .1 0 .2.2.3.3.6 1 .8 2.4.5 3.6-.4-.3-.5-.8-.3-1.2" class="s2"/><path d="M403.9 131.5q.2.6.3 1.3-.1-.6-.2-1.1.1 1.1 0 2.1.1-.5.1-1.1-.1 1.2-.6 2.3.2-.5.5-1-.5 1-1.1 1.9l.6-.8q-.6.8-1.4 1.4l.8-.6q-.5.4-1.1.6l1-.4-.6.2q.5-.1 1.1-.1-.3 0-.6-.1.5.1 1.1.2l-.6-.2 1 .4q-.3-.1-.6-.3l.8.6-1-1q.3.4.7.8-.8-1-1.3-2.2l.4 1q-.4-1-.6-2 .1.5.2 1.1-.1-.8 0-1.5-.1.6-.2 1.1.1-.6.4-1.2-.3.5-.5 1 .3-.5.6-.9-.3.4-.7.8.3-.4.7-.7-.5.4-.9.7.4-.3.8-.5-.5.3-1 .5.4-.2.8-.3-.5.1-1.1.2.5-.1.9 0-.5-.1-1.1-.2.4.1.7.2l-1-.4q.4.1.6.3l-.8-.6q.4.3.7.7-.3-.4-.7-.9.4.6.7 1.2l-.4-1q.3.8.4 1.7 0-.6-.1-1.1.1.9 0 1.7.1-.5.1-1-.1.8-.4 1.6.2-.5.4-.9-.3.7-.8 1.3l.6-.8q-.2.3-.6.6.4-.3.9-.6-.1 0-.2.1.5-.2 1-.5l-.1.1q.5-.1 1.1-.2h-.2q.6.1 1.1.2h-.1l1 .4-.1-.1.8.6q-.1 0-.2-.1.3.4.7.8-.2-.2-.2-.4l.4 1c-.5-1.2-.8-2.5-1-3.8q.1.6.2 1.1c-.1-.8-.3-1.7-.2-2.5q-.1.5-.1 1.1 0-.2.1-.4l-.4 1q0-.1.1-.2-.3.4-.7.8l.2-.2q-.4.4-.8.7v-.1q-.5.2-.9.5 0-.1.1-.1-.6.1-1.1.2h.1q-.6-.1-1.1-.2l.1.1q-.5-.2-1-.5 0 .1.1.1l-.8-.6.1.1q-.3-.4-.7-.8.3.3.4.7l-.4-1q.2.5.3 1.1 0-.5-.1-1.1.1.7 0 1.4.1-.6.2-1.1-.1.2-.2.5 3.1-1.3 6.1-2.5l-.1-.1q.4.4.8.7 0-.1-.1-.1.4.4.7.8l-.2-.2q.2.5.5 1-.1-.1-.1-.3.1.6.1 1.1v-.2q-.1.5-.1 1.1v-.3c.4-.9.1-2.3-.4-3.2-.5-.8-1.4-1.6-2.4-1.9-1.1-.2-2.3-.2-3.2.4q-.4.4-.8.7-.8.8-1.1 1.8c-.3.9-.3 2 0 2.9.4 1.3 1.2 2.2 2.2 2.9 2.2 1.5 5.5 0 6.1-2.4.4-1.7.4-3.5-.2-5-.3-1.1-.8-2.1-1.6-2.9-1.5-1.4-3.7-1.6-5.5-.6-2.1 1.1-2.6 3.5-2.4 5.7.1 1.5.3 3 .7 4.4.6 2 1.4 4 3.4 4.9 1.8.8 3.7.3 5.1-1 .6-.5 1.1-1.2 1.5-1.8 1.5-2.4 1.9-5.3 1.3-8-.5-2.9-2.8-6.1-5.9-6.5-1.9-.3-3.8-.1-5.4.9-1.6 1.1-2.7 2.5-3.3 4.3-1.1 2.9-.3 6.1 1.1 8.7 1.7 3.1 4.9 5.8 8.6 4.7 1.6-.5 3.1-1.5 4.2-2.8.9-.9 1.7-2 2.2-3.2.7-1.6 1.1-3.1 1.2-4.9.1-1.3-.1-2.7-.5-4-.3-1-1-1.9-1.9-2.5-.9-.5-2.2-.7-3.2-.4-2 .7-3.5 2.9-2.8 5.1z" class="s1"/><path d="M363.6 126.5q-22.6-1.1-45.1-.4" class="s2"/><path d="M363.6 122.3q-22.6-1.1-45.1-.3c-5.3.1-5.3 8.4 0 8.2q22.5-.7 45.1.4c5.3.2 5.2-8 0-8.3z" class="s1"/><path d="M332.6 130.9c.6 2.2.2 4.6-1 6.6-.4.7-1.1 1.4-1.9 1.7-1.3.5-2.8-.3-3.7-1.3-1.8-2-2.1-5.1-1.1-7.6.5-1.3 1.7-2.7 3.1-2.4 1.1.3 1.8 1.5 2.1 2.7q.3 1.3.2 2.6c-.1.4-.1.7-.3 1-.2.3-.6.4-.9.2-.1-.1-.2-.3-.3-.4-.5-1.1-.7-2.3-.7-3.5.5 1.4.5 2.9.2 4.3" class="s2"/><path d="M328.7 132q.1.5.1 1 0-.6-.1-1.1.1 1.1 0 2.2 0-.5.1-1.1-.1 1.2-.6 2.2.2-.5.5-1-.4 1-1 1.8l.6-.8q-.3.4-.7.7l.8-.6q-.3.2-.6.3l1-.4q-.3.1-.7.2.6-.1 1.1-.2-.3.1-.6 0 .5.1 1.1.2-.5-.1-1-.3l1 .4q-.5-.2-.9-.5.4.3.9.7-.6-.5-1-1l.6.8q-.5-.7-.8-1.4l.4 1q-.4-.9-.5-1.8.1.5.1 1.1-.1-1.2 0-2.3 0 .6-.1 1.1.1-1 .5-1.9-.2.4-.4.9l.6-1-.6.8q.3-.4.7-.7-.5.4-.9.7l.6-.4q-.5.2-1 .5.3-.2.6-.2-.6.1-1.1.1h.4q-.5 0-1.1-.1.3 0 .6.1l-1-.4q.2.1.4.3-.4-.4-.8-.7.3.3.5.6-.3-.5-.7-.9.3.4.5.8-.2-.5-.4-.9.3.8.4 1.7 0-.6-.1-1.1c.1.7.1 1.4 0 2.2q.1-.6.2-1.1-.1.2-.1.3l.4-1q-.1.2-.2.3.4-.4.7-.8-.1 0-.1.1l.8-.6q-.1.1-.2.1.5-.2.9-.4h-.1q.6-.1 1.1-.1h-.1q.5.1 1.1.1h-.2l1 .4h-.1l.8.6q0-.1-.1-.1l.6.8q-.1-.1-.1-.3l.4 1q-.4-1-.6-2.1.1.5.1 1.1v-1.4q-4.1.5-8.1 1 .2.7.3 1.4-.1-.5-.2-1.1.1 1.1 0 2.2.1-.5.1-1.1 0 .4-.1.8c-.2 1.1-.2 2.2.4 3.2.5.9 1.5 1.7 2.5 1.9 2.1.5 4.5-.6 5-2.9.5-2.2.5-4.4-.1-6.5-.6-2-2.5-3.3-4.5-3-2 .3-3.6 2-3.6 4.1 0 1.1.1 2.2.4 3.2.4 1.7 1.1 3.4 2.6 4.3 1.9 1.1 4.4.7 5.9-.9 1.2-1.2 1.6-3 1.5-4.7-.1-2.4-.7-4.8-2.3-6.6-1.9-2.2-5.2-2.6-7.7-1.1-3.8 2.3-4.9 7.5-3.8 11.6.5 1.9 1.6 3.8 3.1 5.1 2 1.7 4.7 2.7 7.3 1.7 2.8-1 4.5-3.5 5.4-6.2.7-2.3.7-4.8.2-7.1-.5-2.1-3-3.5-5.1-2.8-2.2.7-3.4 2.8-2.8 5z" class="s1"/><path d="M393.8 172c-1.3 4.1-4.5 7.4-8.2 9.5-3.7 2-7.9 3.1-12.1 3.7-5.5.9-11.1 1.2-16.5.3" class="s2"/><path d="M389.8 170.9c-1.7 5.2-7.1 7.9-12.1 9.2-6.2 1.7-13.2 2.4-19.6 1.4-2.2-.3-4.5.6-5.1 2.9-.5 2 .7 4.7 2.9 5.1 8.3 1.3 17.2.7 25.2-1.7 7.5-2.3 14.1-7.1 16.7-14.7.7-2.1-.8-4.5-2.9-5-2.3-.7-4.4.7-5.1 2.8z" class="s1"/></g></g></svg>